<svg viewBox="0 0 65 65" xmlns="http://www.w3.org/2000/svg">
<path d="M37.4984 36.7246C37.7727 37.3718 37.822 38.0823 37.6813 38.9194C37.4984 39.8901 37.0763 40.6499 36.408 41.2408C35.7327 41.8106 35.0011 42.1552 34.1922 42.2326C33.3762 42.31 32.3843 42.2326 31.2166 42.0216L29.1977 41.6277C28.5294 41.494 28.1284 41.3955 27.9807 41.29C27.84 41.1915 27.7626 41.0508 27.7274 40.8539C27.7134 40.7061 27.7696 40.1856 27.9103 39.3485L29.0288 33.3691L32.6094 34.0304C34.1781 34.3329 35.3177 34.6987 36.0211 35.1207C36.7316 35.5428 37.217 36.0915 37.4984 36.7246ZM37.6883 24.1539C37.0552 23.8022 35.8453 23.4645 34.0726 23.1339L31.0477 22.5641L29.7815 29.2962L32.8134 29.8659C34.3962 30.1544 35.592 30.2458 36.401 30.1192C37.21 29.9855 37.8431 29.6971 38.3355 29.2399C38.8068 28.7967 39.1234 28.1988 39.25 27.4953C39.3907 26.7637 39.3203 26.1236 39.053 25.5327C38.7998 24.9629 38.3496 24.4916 37.6883 24.1539ZM64.5179 32.518C64.5179 50.2027 50.1886 64.518 32.5109 64.518C14.8402 64.518 0.517944 50.2027 0.517944 32.518C0.517944 14.8332 14.8402 0.51796 32.5109 0.51796C50.1886 0.51796 64.5179 14.8332 64.5179 32.518ZM45.6866 24.0625C45.1449 22.8807 44.2304 21.8818 42.9712 21.0587C42.4929 20.7351 41.8809 20.4538 41.2126 20.1935L42.1201 15.3326L37.4491 14.4533L36.5909 18.9976L33.5872 18.4349L34.4454 13.8906L29.7675 13.0113L28.9092 17.5626L21.7692 16.226L21.0587 20.0458L22.1491 20.2498C22.8807 20.3764 23.359 20.5382 23.5841 20.7211C23.8233 20.8899 23.964 21.108 24.0273 21.3542C24.0906 21.6004 24.0484 22.128 23.8936 22.9581L21.0095 38.3496C20.8618 39.1515 20.7211 39.665 20.5663 39.869C20.4115 40.073 20.2005 40.2278 19.9191 40.3052C19.6378 40.3825 19.1383 40.3544 18.4137 40.1996L17.3164 40.0168L16.6059 43.8224L23.7389 45.1449L22.8947 49.6892L27.5727 50.5685L28.4168 46.0242L31.0759 46.5166C31.1955 46.5448 31.301 46.5518 31.4206 46.5799L30.5764 51.1242L35.2473 51.9895L36.1759 47.0724C36.9849 47.0583 37.7094 46.988 38.3496 46.8824C40.0871 46.5377 41.5081 45.8272 42.6265 44.751C43.738 43.6958 44.4344 42.4296 44.7017 40.9594C44.9339 39.7213 44.8494 38.5536 44.4555 37.4702C44.0545 36.3588 43.4144 35.4373 42.5281 34.6916C41.9231 34.1711 40.9945 33.6224 39.7705 33.0596C41.0508 32.8697 42.113 32.5391 42.9642 32.0396C43.8224 31.5472 44.5188 30.9282 45.0534 30.1755C45.5951 29.4298 45.9609 28.5927 46.1227 27.6852C46.3759 26.4894 46.2282 25.2513 45.6866 24.0625Z"/>
</svg>
